IKResults
version=1
nRows=5
nColumns=63
inDegrees=yes

Units are S.I. units (second, meters, Newtons, ...)
If the header above contains a line with 'inDegrees', this indicates whether rotational values are in degrees (yes) or radians (no).

endheader
time	pelvis_tilt	pelvis_list	pelvis_rotation	pelvis_tx	pelvis_ty	pelvis_tz	hip_flexion_r	hip_adduction_r	hip_rotation_r	knee_angle_r	knee_angle_r_beta	ankle_angle_r	subtalar_angle_r	mtp_angle_r	hip_flexion_l	hip_adduction_l	hip_rotation_l	knee_angle_l	knee_angle_l_beta	ankle_angle_l	subtalar_angle_l	mtp_angle_l	L5_S1_Flex_Ext	L5_S1_Lat_Bending	L5_S1_axial_rotation	L4_L5_Flex_Ext	L4_L5_Lat_Bending	L4_L5_axial_rotation	L3_L4_Flex_Ext	L3_L4_Lat_Bending	L3_L4_axial_rotation	L2_L3_Flex_Ext	L2_L3_Lat_Bending	L2_L3_axial_rotation	L1_L2_Flex_Ext	L1_L2_Lat_Bending	L1_L2_axial_rotation	L1_T12_Flex_Ext	L1_T12_Lat_Bending	L1_T12_axial_rotation	Abs_r3	Abs_r2	Abs_r1	Abs_t1	Abs_t2	neck_flexion	neck_bending	neck_rotation	arm_flex_r	arm_add_r	arm_rot_r	elbow_flex_r	pro_sup_r	wrist_flex_r	wrist_dev_r	arm_flex_l	arm_add_l	arm_rot_l	elbow_flex_l	pro_sup_l	wrist_flex_l	wrist_dev_l
      4.03333333	    134.96955090	    -89.71709778	     99.21518529	     -0.80137931	      0.32117803	     -0.34230993	     13.14566425	     26.05279614	     29.61758402	     76.98692615	      1.34367534	    -60.12815267	     13.89716945	      0.00000000	     54.88044846	    -24.82780475	      4.49614919	     48.88651287	      0.85323061	    -26.48598570	    -19.74880666	      0.00000000	     -3.40667022	     -0.02342365	     10.81313214	     -6.32652727	     -0.03115345	     11.48895290	     -5.59681851	     -0.05695225	     11.48895290	     -3.89348340	     -0.05695225	      9.46149063	     -3.16343397	     -0.04776550	      8.78566987	     -1.94657137	     -0.03628323	      8.10984911	    -24.33350474	     -0.26497296	     60.13939705	      0.00000000	      0.00000000	     28.37908849	    -11.76140695	     44.75559703	     49.20335034	      1.16649916	     18.06196982	     20.90706228	     89.99559364	      0.00000000	      0.00000000	    -34.07496810	   -195.36134578	   -211.63995321	     26.17975732	     89.99559364	      0.00000000	      0.00000000
      4.06666667	    134.96111271	    -89.68367029	     99.23621231	     -0.80132663	      0.32101991	     -0.34234234	     13.14415518	     26.09659259	     29.65231518	     77.01527853	      1.34417018	    -60.22891241	     13.91773356	      0.00000000	     54.89434920	    -24.78198136	      4.52395308	     48.85922344	      0.85275432	    -26.40384199	    -19.74903505	      0.00000000	     -3.40310662	     -0.02006027	     10.81587679	     -6.31990931	     -0.02668016	     11.49186909	     -5.59096387	     -0.04877455	     11.49186909	     -3.88941056	     -0.04877455	      9.46389219	     -3.16012481	     -0.04090691	      8.78789989	     -1.94453513	     -0.03107336	      8.11190759	    -24.30805031	     -0.22692583	     60.15466196	      0.00000000	      0.00000000	     28.38016116	    -11.75554721	     44.76171230	     49.19799330	      1.10228271	     18.07146356	     20.89049376	     89.99559364	      0.00000000	      0.00000000	    -34.12720336	   -195.42691930	   -211.62092537	     26.13628196	     89.99559364	      0.00000000	      0.00000000
      4.10000000	    134.97973922	    -89.79556968	     99.19021722	     -0.80122364	      0.32088549	     -0.34223574	     13.26657698	     26.13994550	     29.85674725	     76.76257563	      1.33975969	    -61.69857504	     14.47322217	      0.00000000	     54.85313756	    -24.55440913	      5.02415457	     48.73513792	      0.85058862	    -25.37297258	    -19.74062413	      0.00000000	     -3.37782796	     -0.02815986	     10.83671588	     -6.27296430	     -0.03745262	     11.51401062	     -5.54943355	     -0.06846789	     11.51401062	     -3.86051957	     -0.06846789	      9.48212639	     -3.13665104	     -0.05742359	      8.80483165	     -1.93009089	     -0.04361963	      8.12753691	    -24.12748731	     -0.31854998	     60.27056268	      0.00000000	      0.00000000	     28.37997412	    -11.65011451	     44.76171653	     49.11572182	      0.99749400	     18.31747447	     20.93230353	     89.99559364	      0.00000000	      0.00000000	    -34.10734506	   -195.48352202	   -211.46995755	     25.84068707	     89.99559364	      0.00000000	      0.00000000
      4.13333333	    135.13996552	    -89.61994969	     99.06243050	     -0.80172327	      0.32078486	     -0.34268835	     13.05315090	     26.20939288	     30.19101804	     76.48597231	      1.33493205	    -63.15487337	     15.10847352	      0.00000000	     54.59470019	    -24.84633698	      4.67736215	     48.66918449	      0.84943751	    -25.07933354	    -19.73828917	      0.00000000	     -3.40327115	     -0.01857960	     10.90117890	     -6.32021484	     -0.02471087	     11.58250258	     -5.59123417	     -0.04517445	     11.58250258	     -3.88959859	     -0.04517445	      9.53853154	     -3.16027759	     -0.03788753	      8.85720786	     -1.94462913	     -0.02877981	      8.17588417	    -24.30922547	     -0.21017619	     60.62908669	      0.00000000	      0.00000000	     28.38132219	    -11.77603901	     44.76506693	     49.48699700	      0.30237576	     22.29957205	     20.89857097	     89.99559364	      0.00000000	      0.00000000	    -34.27068756	   -195.15276262	   -209.54665758	     25.77601835	     89.99559364	      0.00000000	      0.00000000
      4.16666667	    135.14137311	    -89.68957768	     99.08052922	     -0.80162615	      0.32064953	     -0.34261504	     13.12809011	     26.22162127	     30.26960884	     76.35210640	      1.33259565	    -63.90650258	     15.44910674	      0.00000000	     54.65520583	    -24.71227688	      4.90992159	     48.60096347	      0.84824683	    -24.80653290	    -19.73617470	      0.00000000	     -3.38493417	     -0.02186495	     10.90837818	     -6.28616124	     -0.02908039	     11.59015182	     -5.56110834	     -0.05316244	     11.59015182	     -3.86864126	     -0.05316244	      9.54483091	     -3.14324987	     -0.04458701	      8.86305727	     -1.93415138	     -0.03386881	      8.18128364	    -24.17824627	     -0.24734071	     60.66912692	      0.00000000	      0.00000000	     28.38162379	    -11.77133699	     44.76709690	     49.42873079	      0.22790933	     22.43351599	     20.89055516	     89.99559364	      0.00000000	      0.00000000	    -34.29517803	   -195.24047013	   -209.55498912	     25.62500898	     89.99559364	      0.00000000	      0.00000000
